<?xml version="1.0" standalone="no"?>
<!DOCTYPE svg PUBLIC "-//W3C//DTD SVG 20010904//EN"
 "http://www.w3.org/TR/2001/REC-SVG-20010904/DTD/svg10.dtd">
<svg version="1.0" xmlns="http://www.w3.org/2000/svg"
 width="405.000000pt" height="405.000000pt" viewBox="0 0 405.000000 405.000000"
 preserveAspectRatio="xMidYMid meet">
<metadata>
Created by potrace 1.14, written by Peter Selinger 2001-2017
</metadata>
<g transform="translate(0.000000,405.000000) scale(0.100000,-0.100000)"
fill="#000000" stroke="none">
<path d="M1765 4041 c-3 -6 -10 -9 -15 -6 -5 3 -11 1 -15 -5 -4 -7 -13 -6 -27
1 -18 10 -20 9 -15 -5 7 -17 -13 -18 -25 -1 -5 6 -8 6 -8 -2 0 -6 -11 -10 -25
-8 -14 1 -25 -2 -25 -7 0 -5 -5 -6 -11 -2 -6 3 -15 0 -20 -7 -7 -12 -9 -11 -9
1 0 13 -2 13 -9 1 -8 -12 -41 -21 -88 -24 -7 0 -13 -3 -13 -7 0 -6 -16 -10
-53 -11 -10 0 -20 -6 -23 -14 -3 -8 -12 -11 -20 -8 -8 3 -14 0 -14 -6 0 -6 -7
-8 -15 -5 -8 4 -15 1 -15 -6 0 -6 -4 -9 -9 -6 -4 3 -26 -3 -47 -13 -21 -11
-42 -17 -45 -15 -4 2 -10 -4 -13 -13 -6 -15 -8 -15 -16 -3 -6 8 -10 10 -10 4
0 -5 -16 -16 -35 -24 -19 -8 -35 -17 -35 -22 0 -4 -3 -7 -7 -7 -12 2 -73 -25
-73 -32 0 -3 -18 -14 -40 -24 -22 -10 -40 -22 -40 -27 0 -5 -4 -6 -10 -3 -6 3
-10 1 -10 -4 0 -6 -7 -11 -15 -11 -9 0 -18 -7 -21 -15 -4 -8 -13 -15 -21 -15
-8 0 -11 -4 -8 -10 3 -5 0 -7 -9 -4 -9 3 -19 -3 -26 -16 -6 -11 -15 -18 -19
-15 -5 3 -12 -2 -15 -11 -4 -9 -9 -14 -12 -11 -3 3 -19 -6 -34 -21 -39 -38
-126 -113 -142 -123 -7 -5 -10 -9 -7 -9 3 0 -25 -32 -62 -71 -38 -39 -66 -76
-62 -82 3 -5 2 -7 -4 -4 -10 7 -53 -44 -53 -63 0 -6 -4 -8 -10 -5 -5 3 -10 -1
-10 -9 0 -9 -5 -16 -12 -16 -6 0 -9 -3 -6 -6 3 -3 -7 -19 -23 -36 -15 -17 -26
-35 -23 -39 2 -4 -4 -14 -14 -21 -11 -7 -20 -15 -21 -18 -1 -3 -4 -15 -7 -27
-4 -13 -10 -23 -15 -23 -5 0 -9 -7 -9 -15 0 -8 -5 -15 -12 -15 -6 0 -8 -3 -5
-7 4 -3 -1 -12 -11 -19 -14 -11 -14 -13 -2 -14 12 -1 12 -3 -2 -13 -9 -8 -18
-20 -20 -27 -2 -8 -9 -21 -16 -28 -7 -8 -10 -18 -7 -23 4 -5 1 -9 -5 -9 -7 0
-10 -7 -6 -15 3 -8 -2 -19 -12 -24 -9 -6 -13 -11 -8 -11 5 0 2 -7 -5 -17 -8
-9 -13 -19 -13 -22 1 -3 -2 -16 -7 -29 -5 -13 -9 -30 -9 -38 0 -8 -5 -14 -12
-14 -6 0 -8 -3 -5 -7 4 -3 2 -12 -4 -20 -6 -7 -9 -13 -6 -13 3 0 0 -15 -8 -34
-8 -18 -11 -36 -8 -40 4 -3 1 -6 -4 -6 -6 0 -10 -8 -8 -17 1 -10 0 -22 -4 -28
-7 -12 -12 -34 -14 -57 -1 -10 -6 -18 -11 -18 -5 0 -6 -3 -3 -6 3 -4 2 -16 -4
-27 -8 -15 -8 -18 1 -12 9 6 9 2 1 -14 -7 -12 -9 -26 -6 -31 3 -6 2 -10 -2
-10 -8 0 -12 -27 -13 -88 0 -13 -4 -21 -8 -18 -4 2 -8 -91 -9 -207 -1 -150 2
-214 10 -219 9 -6 8 -8 -1 -8 -8 0 -10 -5 -6 -12 4 -6 8 -23 10 -37 1 -14 3
-26 4 -26 1 0 3 -13 5 -30 1 -16 3 -30 5 -30 1 0 3 -13 5 -30 2 -16 6 -41 10
-55 3 -14 7 -36 9 -50 1 -14 8 -36 15 -48 7 -13 10 -26 7 -29 -3 -4 -2 -11 3
-17 4 -6 14 -33 21 -61 8 -27 17 -52 21 -55 4 -3 10 -18 13 -33 3 -15 12 -42
20 -59 9 -17 16 -37 16 -44 0 -7 5 -14 10 -16 6 -2 12 -13 13 -26 0 -12 5 -22
8 -22 4 0 13 -16 20 -35 7 -19 17 -35 22 -35 4 0 5 -4 2 -10 -3 -5 -1 -10 5
-10 6 0 8 -4 5 -10 -3 -5 -2 -10 3 -10 4 0 14 -16 22 -35 7 -19 17 -32 22 -29
4 3 8 -4 8 -15 0 -12 5 -21 10 -21 6 0 10 -7 10 -15 0 -8 5 -15 10 -15 6 0 10
-5 10 -11 0 -6 7 -17 15 -26 8 -8 12 -19 9 -25 -4 -7 -2 -8 4 -4 7 4 12 3 12
-2 0 -5 14 -23 30 -41 17 -17 28 -31 25 -31 -7 0 8 -18 55 -67 19 -20 34 -40
33 -44 -2 -4 6 -11 17 -14 11 -4 20 -14 20 -22 0 -9 3 -14 6 -11 7 7 54 -39
54 -53 0 -6 5 -7 10 -4 6 3 10 -1 10 -10 0 -9 5 -13 10 -10 6 3 10 1 10 -4 0
-6 7 -11 16 -11 8 0 12 -5 9 -10 -3 -6 2 -13 12 -17 10 -4 27 -17 38 -30 11
-13 24 -23 28 -23 4 0 13 -5 20 -10 7 -6 28 -24 47 -40 19 -16 40 -30 45 -30
6 0 23 -11 39 -25 27 -23 40 -29 58 -26 5 0 8 -6 8 -15 0 -8 4 -12 10 -9 6 3
10 1 10 -5 0 -7 7 -10 15 -6 8 3 15 2 15 -3 0 -9 141 -82 151 -78 4 1 17 -7
30 -18 13 -12 19 -14 14 -5 -5 10 -1 8 13 -4 12 -10 28 -16 37 -12 9 3 14 2
11 -2 -3 -5 17 -15 44 -22 28 -8 50 -18 50 -23 0 -6 3 -7 7 -4 3 4 12 2 20 -4
10 -9 13 -8 13 1 0 10 4 9 16 -1 16 -13 40 -20 79 -23 11 0 25 -8 32 -16 9
-11 12 -12 13 -2 0 9 5 10 17 3 10 -5 21 -9 26 -10 4 -1 8 -1 10 -2 14 -4 50
-9 84 -11 24 -2 43 -5 43 -9 0 -3 10 -5 23 -6 115 -5 145 -8 139 -18 -3 -5 2
-4 11 4 12 9 17 10 17 2 0 -9 5 -9 20 -1 12 6 20 7 20 1 0 -6 12 -6 32 0 41
11 41 11 33 -1 -4 -7 3 -7 19 0 18 7 26 6 26 -1 0 -8 4 -8 13 -2 6 6 25 8 40
6 21 -3 27 0 21 8 -5 8 -3 9 6 4 17 -11 60 -13 60 -4 0 4 16 6 35 5 20 -2 38
0 41 5 2 4 11 6 19 2 9 -3 15 1 15 8 0 11 3 11 10 -1 6 -9 10 -11 10 -3 0 7 7
10 15 7 8 -3 20 -2 27 2 7 4 28 9 47 11 18 2 43 9 53 14 11 6 22 8 26 5 3 -3
16 1 30 10 13 9 21 11 18 5 -4 -6 14 -2 39 9 25 11 49 19 53 18 4 -1 17 3 30
10 12 7 22 10 22 6 0 -4 9 1 19 10 11 10 25 15 30 11 6 -3 11 -1 11 5 0 6 4 9
9 5 5 -3 12 -1 16 5 4 6 11 8 16 5 5 -4 9 -1 9 4 0 6 3 10 8 10 18 -3 33 2 28
9 -3 5 0 9 7 9 22 1 41 8 55 21 8 7 18 10 23 7 5 -4 9 -1 9 4 0 6 9 11 20 11
11 0 19 5 17 12 -1 7 3 13 8 13 23 2 55 17 55 26 0 5 6 9 13 9 7 0 23 9 35 20
12 11 24 19 26 18 3 -2 15 5 26 14 11 10 25 18 30 18 6 0 10 5 10 10 0 6 7 10
15 10 8 0 15 4 15 9 0 5 28 30 63 55 34 24 77 61 96 80 19 20 38 36 43 36 5 0
6 4 3 10 -3 5 -1 10 5 10 14 0 33 19 49 48 7 12 16 20 22 17 5 -4 9 -2 9 3 0
6 11 23 25 38 61 72 75 90 75 97 0 5 5 5 12 1 6 -4 8 -3 5 3 -3 5 7 25 23 44
16 19 29 40 30 47 0 7 7 15 15 18 8 4 12 10 9 15 -3 5 0 9 5 9 6 0 11 5 11 11
0 6 13 30 29 53 17 24 33 55 36 69 4 15 11 24 16 21 5 -3 9 2 9 10 0 18 40 99
51 104 5 2 6 9 3 17 -3 7 0 16 5 20 6 3 9 11 6 16 -4 5 -2 9 3 9 6 0 13 16 16
35 4 20 11 33 15 30 5 -2 8 1 8 8 -2 23 15 87 24 87 4 0 6 9 4 20 -2 11 0 20
5 20 5 0 7 7 4 15 -4 8 -2 15 3 15 5 0 9 8 10 18 1 9 4 31 8 47 3 17 7 38 8
48 1 9 4 17 8 17 3 0 5 11 4 25 -2 14 0 25 4 25 3 0 6 22 6 50 0 27 3 50 8 50
4 0 7 15 7 33 -1 73 0 81 12 89 8 5 9 8 2 8 -11 0 -10 57 1 88 2 6 -1 12 -7
12 -7 0 -6 5 2 15 9 11 9 15 1 15 -9 0 -9 5 -1 20 6 11 7 20 3 20 -4 0 -8 16
-8 35 0 19 5 35 10 35 6 0 3 5 -5 10 -8 5 -12 10 -8 10 4 0 3 13 -2 29 -6 21
-5 31 3 35 9 3 9 5 0 5 -7 1 -10 8 -6 17 3 9 0 20 -8 25 -11 7 -11 9 -1 9 8 0
10 5 6 12 -4 6 -9 28 -11 47 -3 36 -10 76 -13 76 -1 0 -4 11 -6 25 -8 47 -11
65 -14 65 -1 0 -4 13 -6 30 -3 16 -10 35 -16 42 -6 7 -7 13 -2 13 5 0 2 5 -6
10 -9 6 -10 10 -3 10 9 0 8 8 -3 28 -7 15 -14 35 -14 45 0 9 -5 17 -11 17 -5
0 -8 4 -4 9 3 5 0 13 -6 16 -5 4 -8 13 -5 21 3 8 1 14 -4 14 -6 0 -9 3 -8 8 1
4 -3 17 -10 28 -6 12 -8 24 -5 28 3 3 2 6 -4 6 -6 0 -14 7 -17 16 -4 9 -2 13
5 8 7 -4 0 11 -15 32 -14 21 -26 44 -26 51 0 7 -5 13 -10 13 -6 0 -9 3 -8 8 1
8 -13 45 -21 52 -10 8 -42 64 -48 83 -3 9 -9 17 -14 17 -5 0 -9 7 -9 15 0 8
-4 15 -9 15 -5 0 -16 15 -24 33 -9 17 -31 48 -49 67 -18 19 -35 40 -38 45 -6
13 -29 41 -57 71 -13 13 -23 29 -23 35 0 7 -3 10 -6 6 -8 -7 -34 17 -34 32 0
5 -13 18 -29 27 -17 10 -28 21 -25 26 3 4 -2 8 -10 8 -9 0 -16 7 -16 15 0 8
-6 14 -12 12 -7 -1 -12 4 -11 10 2 7 0 12 -5 10 -4 -1 -32 18 -61 43 -30 25
-58 44 -62 43 -5 -2 -9 5 -9 14 0 9 -3 14 -6 10 -4 -3 -12 -1 -20 6 -33 29
-44 37 -54 37 -5 0 -10 5 -10 10 0 6 -6 10 -14 10 -7 0 -19 7 -26 15 -7 8 -16
13 -20 10 -4 -3 -10 2 -14 10 -3 8 -12 15 -20 15 -8 0 -21 7 -29 15 -8 8 -21
16 -28 17 -8 2 -20 9 -27 16 -8 7 -18 10 -23 7 -5 -4 -9 -2 -9 2 0 6 -61 39
-90 48 -3 1 -22 9 -42 18 -21 10 -39 17 -42 17 -3 0 -17 5 -33 12 -15 6 -35
12 -43 14 -8 2 -16 8 -18 14 -3 8 -8 8 -17 0 -9 -8 -14 -6 -19 5 -3 9 -11 13
-16 10 -6 -4 -18 -1 -27 7 -11 8 -14 9 -10 1 5 -8 -1 -7 -20 2 -15 8 -36 12
-47 9 -13 -4 -16 -3 -11 6 5 8 3 11 -6 8 -8 -3 -23 2 -33 11 -14 12 -20 13
-23 3 -3 -6 -10 -9 -16 -5 -14 8 -28 11 -74 15 -18 1 -33 6 -33 11 0 4 -9 6
-19 2 -11 -3 -22 -1 -26 4 -4 7 -14 7 -30 1 -15 -6 -25 -6 -25 0 0 11 -379 11
-401 -1 -9 -5 -20 -4 -26 2 -8 8 -13 7 -18 0z"/>
</g>
</svg>
