<?xml version="1.0" standalone="no"?>
<!DOCTYPE svg PUBLIC "-//W3C//DTD SVG 20010904//EN"
 "http://www.w3.org/TR/2001/REC-SVG-20010904/DTD/svg10.dtd">
<svg version="1.0" xmlns="http://www.w3.org/2000/svg"
 width="1080.000000pt" height="1080.000000pt" viewBox="0 0 1080.000000 1080.000000"
 preserveAspectRatio="xMidYMid meet">
<metadata>
Created by potrace 1.14, written by Peter Selinger 2001-2017
</metadata>
<g transform="translate(0.000000,1080.000000) scale(0.100000,-0.100000)"
fill="#000000" stroke="none">
<path d="M5100 10790 c-58 -3 -112 -9 -120 -12 -8 -4 -73 -12 -143 -18 -248
-21 -634 -94 -899 -170 -744 -212 -1433 -579 -2028 -1080 -175 -147 -476 -448
-620 -620 -442 -525 -776 -1115 -992 -1750 -113 -334 -211 -756 -243 -1050 -8
-80 -20 -179 -26 -220 -31 -230 -33 -728 -3 -894 8 -43 14 -105 14 -137 0
-204 135 -818 263 -1194 209 -614 532 -1185 968 -1713 145 -176 473 -504 659
-659 596 -496 1271 -853 2009 -1063 261 -73 564 -134 806 -160 55 -6 134 -15
175 -21 159 -22 484 -32 688 -21 1078 59 2034 382 2882 973 858 599 1531 1447
1918 2419 122 307 207 592 273 910 56 274 65 342 110 790 13 126 6 674 -9 710
-5 14 -15 90 -21 170 -17 229 -78 539 -172 880 -199 725 -559 1407 -1059 2010
-130 157 -498 525 -650 651 -620 513 -1268 856 -2021 1069 -209 59 -518 123
-702 145 -73 9 -179 23 -237 32 -193 29 -541 39 -820 23z m504 -534 c326 -90
612 -166 624 -166 8 0 11 -7 8 -17 -3 -10 -28 -103 -56 -208 -28 -104 -76
-282 -107 -395 -136 -504 -192 -715 -190 -716 1 -1 97 -27 212 -59 116 -31
275 -74 354 -96 79 -22 147 -36 151 -32 4 4 26 78 48 163 42 156 88 327 182
675 28 105 67 251 87 325 19 74 39 139 43 143 11 12 810 -205 810 -220 0 -12
-47 -190 -195 -738 -137 -506 -155 -578 -153 -580 2 -1 109 -30 238 -65 129
-34 390 -105 580 -156 190 -52 440 -120 555 -151 116 -31 213 -59 217 -63 5
-3 -7 -60 -26 -125 -19 -66 -64 -232 -101 -370 -37 -137 -80 -295 -95 -350
-16 -55 -43 -155 -61 -223 l-32 -123 -346 -307 c-190 -170 -553 -493 -806
-718 -253 -225 -789 -702 -1190 -1059 -402 -358 -846 -753 -988 -879 -141
-127 -254 -233 -250 -237 5 -3 145 -44 313 -89 379 -102 660 -179 681 -185 13
-5 24 23 58 152 88 336 137 512 142 517 3 3 160 -37 350 -88 189 -52 522 -142
739 -201 579 -157 556 -150 552 -170 -2 -10 -28 -109 -58 -219 -30 -111 -79
-291 -109 -401 -30 -110 -95 -348 -144 -530 -49 -181 -122 -449 -161 -595 -40
-146 -74 -267 -76 -269 -4 -4 -218 52 -479 124 -66 19 -298 82 -515 141 -217
58 -456 123 -530 144 -74 21 -138 35 -142 31 -3 -3 -32 -100 -63 -216 -31
-115 -69 -257 -85 -315 -16 -58 -56 -208 -90 -335 -106 -394 -137 -506 -143
-511 -3 -3 -106 22 -229 55 -122 34 -304 83 -403 110 -157 42 -180 51 -177 67
2 11 14 57 27 104 13 47 51 186 84 310 34 124 105 389 159 590 87 319 97 366
83 373 -21 10 -679 187 -695 187 -7 0 -18 -24 -25 -53 -8 -28 -31 -117 -53
-197 -21 -80 -64 -237 -94 -350 -31 -113 -75 -277 -99 -365 -24 -88 -58 -214
-76 -280 -17 -66 -35 -123 -38 -127 -3 -4 -107 20 -231 53 -124 34 -304 82
-400 108 -167 45 -175 48 -174 72 0 13 37 159 82 324 232 857 281 1040 279
1042 -3 2 -1274 348 -1376 374 -29 7 -55 19 -58 26 -3 7 25 122 61 255 36 134
108 397 158 586 l93 343 684 607 c376 334 775 688 887 787 1279 1131 2029
1801 2020 1806 -20 11 -837 231 -842 227 -2 -3 -27 -88 -55 -189 -114 -421
-132 -479 -142 -479 -11 0 -342 89 -1037 279 -102 28 -277 75 -389 106 -113
30 -206 57 -208 59 -2 2 14 68 36 147 40 146 158 578 316 1164 47 176 106 392
130 480 24 88 49 179 55 202 l10 41 88 -23 c288 -78 853 -231 942 -255 212
-58 310 -83 313 -79 2 2 20 67 41 144 20 77 68 255 106 395 37 140 96 359 130
485 75 284 79 295 93 295 6 0 83 -20 171 -44z"/>
</g>
</svg>
